<svg xmlns="http://www.w3.org/2000/svg" width="24" height="24" viewBox="0 0 24 24">
  <metadata><?xpacket begin="﻿" id="W5M0MpCehiHzreSzNTczkc9d"?>
<x:xmpmeta xmlns:x="adobe:ns:meta/" x:xmptk="Adobe XMP Core 5.6-c140 79.160451, 2017/05/06-01:08:21        ">
   <rdf:RDF xmlns:rdf="http://www.w3.org/1999/02/22-rdf-syntax-ns#">
      <rdf:Description rdf:about=""/>
   </rdf:RDF>
</x:xmpmeta>
                                                                                                    
                                                                                                    
                                                                                                    
                                                                                                    
                                                                                                    
                                                                                                    
                                                                                                    
                                                                                                    
                                                                                                    
                                                                                                    
                                                                                                    
                                                                                                    
                                                                                                    
                                                                                                    
                                                                                                    
                                                                                                    
                                                                                                    
                                                                                                    
                                                                                                    
                                                                                                    
                           
<?xpacket end="w"?></metadata>
<defs>
    <style>
      .cls-1 {
        fill: #405089;
        fill-rule: evenodd;
      }
    </style>
  </defs>
  <path id="Forma_1" data-name="Forma 1" class="cls-1" d="M23.625,21.86l-5.915-5.94A9.463,9.463,0,0,0,20.065,9.69,9.878,9.878,0,0,0,10.031,0,9.878,9.878,0,0,0,0,9.69a9.878,9.878,0,0,0,10.034,9.69,10.172,10.172,0,0,0,5.748-1.754l5.96,5.986a1.342,1.342,0,0,0,1.85.035A1.235,1.235,0,0,0,23.625,21.86ZM10.031,2.528A7.3,7.3,0,0,1,17.447,9.69a7.3,7.3,0,0,1-7.416,7.162A7.3,7.3,0,0,1,2.615,9.69,7.3,7.3,0,0,1,10.031,2.528Z"/>
</svg>
